<svg width="28" height="28" viewBox="0 0 28 28" fill="none" xmlns="http://www.w3.org/2000/svg">
<path d="M15.2816 4.01625L15.5626 4.00888C16.3128 3.99231 17.0837 4.00561 17.8369 4.00402C19.3285 4.00087 20.8908 3.89462 22.0568 5.01345C22.9061 5.82841 23.1798 6.98355 23.2101 8.1233C23.2504 9.64062 23.0992 10.8439 22.0029 11.9825C20.4693 13.4276 18.7824 13.0864 16.8507 13.1268C16.3286 13.1378 15.8028 13.1137 15.2812 13.1384C15.3204 10.1264 15.2823 7.03436 15.2816 4.01625ZM16.6044 11.9984C17.1276 11.9819 17.7551 11.9901 18.2831 11.9947C19.3872 12.0045 20.2126 11.9723 21.03 11.1427C21.7756 10.2668 21.9136 9.2241 21.852 8.10025C21.8052 7.24572 21.5528 6.31496 20.8659 5.75918C20.0923 5.13318 19.4331 5.1332 18.5084 5.1358L17.332 5.14077C17.146 5.14192 16.7708 5.15625 16.6002 5.13081C16.5922 7.38077 16.5609 9.75668 16.6044 11.9984Z" fill="#0B0E15"/>
<path d="M15.4648 15.1161C16.475 15.1278 17.4762 15.115 18.5084 15.1152C19.9632 15.1155 21.7487 14.9321 22.4026 16.5954C22.6878 17.3209 22.5764 18.3351 22.0431 18.92C21.8052 19.1809 21.5902 19.3129 21.2861 19.4934C21.5577 19.4564 22.1958 19.4751 22.5169 19.4664C22.4856 19.9972 22.5179 20.8562 22.5219 21.4192C22.5281 22.3131 22.4924 23.3773 22.546 24.2565C22.1956 24.2237 21.6771 24.2388 21.3119 24.2397C21.3038 23.838 21.2997 23.4362 21.2996 23.0345C21.2857 22.2067 21.2606 21.3332 21.2787 20.5089L18.3102 20.5087C17.7916 20.5092 17.2159 20.5217 16.7045 20.5006L16.7097 24.2531C16.3816 24.2215 15.8179 24.2388 15.4719 24.2401C15.4991 22.05 15.4562 19.8498 15.473 17.6583C15.4793 16.8295 15.4973 15.9421 15.4648 15.1161ZM16.7086 19.3366C17.4312 19.3269 18.1532 19.3376 18.8754 19.3316C19.5309 19.3263 20.3041 19.3504 20.8362 18.9167C21.6217 18.1091 21.3958 16.5335 20.1837 16.3158C19.8085 16.2484 19.4081 16.2693 19.0273 16.2701L17.4398 16.2752C17.2421 16.2766 16.8924 16.2923 16.7076 16.2662C16.7057 17.2576 16.6818 18.3553 16.7086 19.3366Z" fill="#0B0E15"/>
<path d="M8.3876 4.01058C8.85477 4.00694 9.32195 4.00689 9.78909 4.01045C9.86998 4.28591 10.1026 4.81974 10.2129 5.11125L11.0328 7.32695L12.3625 10.8875C12.6314 11.614 12.9075 12.425 13.1986 13.1388C12.7959 13.121 12.2143 13.1253 11.8139 13.1401C11.7564 13.0136 11.7007 12.8495 11.655 12.7171C11.4015 11.9832 11.118 11.2499 10.8742 10.5138C10.5921 10.4925 10.1094 10.5056 9.81222 10.5044C8.96919 10.4996 8.12611 10.5022 7.28313 10.5122C7.18869 10.7134 7.04625 11.1609 6.96394 11.3939L6.34722 13.1387C5.94306 13.1253 5.3987 13.1179 5 13.1429C5.08598 12.8629 5.23729 12.4819 5.34042 12.1987L6.24633 9.78207C6.94123 7.85131 7.65503 5.92738 8.3876 4.01058ZM7.66401 9.3808C8.09635 9.41028 8.69342 9.39795 9.1358 9.39654C9.56832 9.39677 10.0542 9.38585 10.4822 9.39979C10.3111 8.99061 9.14712 5.5451 9.03322 5.46304C8.88212 6.02957 8.58829 6.79666 8.39051 7.37258C8.23915 7.82089 8.08126 8.26699 7.91691 8.71073C7.84438 8.90993 7.75205 9.19523 7.66401 9.3808Z" fill="#0B0E15"/>
<path d="M8.84629 14.9285C9.60381 14.8465 10.7744 14.9892 11.4314 15.3899C12.5607 16.0787 12.8141 16.7114 13.1342 17.8951C12.7547 17.8776 12.2362 17.9322 11.8679 17.8732C11.7731 17.858 11.5936 17.3333 11.4896 17.1635C11.1712 16.6351 10.6431 16.2639 10.0375 16.138C8.27383 15.7712 6.9053 16.5985 6.49336 18.3693C6.06526 20.2095 6.4996 22.651 8.62133 23.1498C9.42253 23.3382 10.2104 23.2562 10.9124 22.818C11.3735 22.4689 11.779 21.9451 11.8804 21.3663C12.2428 21.3454 12.7975 21.3677 13.1816 21.3619C13.0181 21.9941 12.8244 22.4865 12.4178 23.0165C11.1102 24.7151 8.2935 24.8075 6.64972 23.5699C4.641 22.0577 4.51867 18.3115 5.9998 16.4049C6.7133 15.4864 7.69687 15.0464 8.84629 14.9285Z" fill="#0B0E15"/>
</svg>
