<svg width="28" height="28" viewBox="0 0 28 28" fill="none" xmlns="http://www.w3.org/2000/svg">
<path d="M13.0885 5.00864C13.2767 5.01241 13.4861 5.00039 13.6781 5C14.1159 4.99977 14.5536 5.01291 14.9905 5.03937C16.8284 5.16635 18.9615 5.73487 20.5041 6.75885C21.3467 7.3278 22.1889 8.1835 22.409 9.20864C22.8643 11.3284 20.8355 12.8631 19.1361 13.5762C18.8972 13.6764 18.5994 13.8188 18.3456 13.8711C18.3294 13.7056 18.3359 13.4632 18.336 13.2921L18.3369 12.311C18.3368 11.6541 18.2976 11.2623 17.8081 10.7744C16.8331 9.80246 15.072 9.47741 13.752 9.47997C12.4559 9.48247 10.6302 9.79372 9.67864 10.7652C9.38637 11.0636 9.13721 11.4636 9.14385 11.898C9.15117 12.3765 9.50734 12.7284 9.89257 12.9549C10.9602 13.5827 12.9416 13.8805 14.1741 14.0985L15.7313 14.3879C17.7569 14.7727 19.8268 15.2521 21.3609 16.7389C22.7583 18.0929 22.8814 19.9137 21.4815 21.3281C19.9973 22.8274 17.8456 23.4731 15.8137 23.7691C15.376 23.8324 14.846 23.8905 14.4058 23.8927C12.357 23.9771 10.1296 23.6727 8.24017 22.8378C7.04806 22.311 5.66918 21.3733 5.18881 20.0965C4.92091 19.3928 4.94812 18.6097 5.26419 17.9265C5.32559 17.7908 5.40284 17.6688 5.4814 17.542C6.17481 16.4235 7.38273 15.7208 8.56368 15.2292C8.7536 15.1502 8.94948 15.0882 9.14119 15.0164C9.14071 15.4209 9.15213 15.8265 9.15133 16.2317C9.15075 16.526 9.13347 16.8292 9.14947 17.1225C9.17361 17.5643 9.48393 17.9788 9.80192 18.2595C10.8471 19.1825 12.8253 19.5031 14.1786 19.4111C15.2421 19.3388 16.3398 19.1351 17.2575 18.559C17.5003 18.4066 17.7282 18.235 17.9166 18.0162C18.1659 17.7264 18.3635 17.3357 18.3312 16.9418C18.2895 16.4339 17.9274 16.112 17.4938 15.9039C16.6416 15.4949 15.4149 15.3163 14.477 15.1501C11.9537 14.703 8.38289 14.103 6.40084 12.4052C5.67252 11.7813 5.08071 10.9653 5.0068 9.97649C4.94292 9.12178 5.3362 8.33954 5.87844 7.71173C7.20301 6.17811 9.65921 5.40814 11.602 5.13258C12.0946 5.06269 12.5931 5.04288 13.0885 5.00864Z" fill="#0B0E15"/>
</svg>
