<svg width="348" height="347" viewBox="0 0 348 347" fill="none" xmlns="http://www.w3.org/2000/svg">
<path d="M175 2C175 3.10457 174.105 4 173 4C171.895 4 171 3.10457 171 2C171 0.89543 171.895 0 173 0C174.105 0 175 0.89543 175 2Z" fill="#EE160B"/>
<path d="M175 345C175 346.105 174.105 347 173 347C171.895 347 171 346.105 171 345C171 343.895 171.895 343 173 343C174.105 343 175 343.895 175 345Z" fill="#EE160B"/>
<path d="M346 176C344.895 176 344 175.105 344 174C344 172.895 344.895 172 346 172C347.105 172 348 172.895 348 174C348 175.105 347.105 176 346 176Z" fill="#EE160B"/>
<path d="M2 176C0.89543 176 -4.82823e-08 175.105 0 174C4.82823e-08 172.895 0.89543 172 2 172C3.10457 172 4 172.895 4 174C4 175.105 3.10457 176 2 176Z" fill="#EE160B"/>
<path d="M260.984 26.4781C260.431 27.4347 259.208 27.7625 258.252 27.2102C257.295 26.6579 256.967 25.4347 257.52 24.4781C258.072 23.5216 259.295 23.1938 260.252 23.7461C261.208 24.2984 261.536 25.5216 260.984 26.4781Z" fill="#EE160B"/>
<path d="M89.4836 323.525C88.9314 324.482 87.7082 324.809 86.7516 324.257C85.795 323.705 85.4672 322.482 86.0195 321.525C86.5718 320.568 87.795 320.241 88.7516 320.793C89.7082 321.345 90.0359 322.568 89.4836 323.525Z" fill="#EE160B"/>
<path d="M257.516 323.522C256.964 322.565 257.292 321.342 258.248 320.79C259.205 320.238 260.428 320.565 260.98 321.522C261.533 322.478 261.205 323.702 260.248 324.254C259.292 324.806 258.069 324.478 257.516 323.522Z" fill="#EE160B"/>
<path d="M86.0164 26.475C85.4641 25.5184 85.7918 24.2952 86.7484 23.7429C87.705 23.1906 88.9282 23.5184 89.4805 24.475C90.0328 25.4316 89.705 26.6547 88.7484 27.207C87.7918 27.7593 86.5686 27.4316 86.0164 26.475Z" fill="#EE160B"/>
<path d="M324.022 89.9836C323.065 90.5359 321.842 90.2082 321.29 89.2516C320.738 88.295 321.065 87.0718 322.022 86.5195C322.978 85.9672 324.202 86.295 324.754 87.2516C325.306 88.2082 324.978 89.4314 324.022 89.9836Z" fill="#EE160B"/>
<path d="M25.975 261.484C25.0184 262.036 23.7952 261.708 23.2429 260.752C22.6906 259.795 23.0184 258.572 23.975 258.02C24.9316 257.467 26.1547 257.795 26.707 258.752C27.2593 259.708 26.9316 260.931 25.975 261.484Z" fill="#EE160B"/>
<path d="M322.022 261.484C321.065 260.931 320.738 259.708 321.29 258.752C321.842 257.795 323.065 257.467 324.022 258.02C324.978 258.572 325.306 259.795 324.754 260.752C324.202 261.708 322.978 262.036 322.022 261.484Z" fill="#EE160B"/>
<path d="M23.975 89.9836C23.0184 89.4314 22.6906 88.2082 23.2429 87.2516C23.7952 86.295 25.0184 85.9672 25.975 86.5195C26.9316 87.0718 27.2593 88.295 26.707 89.2516C26.1547 90.2082 24.9316 90.5359 23.975 89.9836Z" fill="#EE160B"/>
</svg>
