<svg width="44" height="20" viewBox="0 0 44 20" fill="none" xmlns="http://www.w3.org/2000/svg">
<g clip-path="url(#clip0_2002_25)">
<rect width="44" height="20" rx="10" fill="#D9D9D9"/>
<circle cx="22.5" cy="9.5" r="16.5" stroke="#9F9F9F" stroke-width="2"/>
<path d="M22.5 -7C23.1973 -7 23.9453 -6.67447 24.7168 -5.91309C25.4926 -5.14742 26.2369 -3.98973 26.8838 -2.48047C28.176 0.534635 29 4.76969 29 9.5C29 14.2303 28.176 18.4654 26.8838 21.4805C26.2369 22.9897 25.4926 24.1474 24.7168 24.9131C23.9453 25.6745 23.1973 26 22.5 26C21.8027 26 21.0547 25.6745 20.2832 24.9131C19.5074 24.1474 18.7631 22.9897 18.1162 21.4805C16.824 18.4654 16 14.2303 16 9.5C16 4.76969 16.824 0.534635 18.1162 -2.48047C18.7631 -3.98973 19.5074 -5.14742 20.2832 -5.91309C21.0547 -6.67447 21.8027 -7 22.5 -7Z" stroke="#9F9F9F" stroke-width="2"/>
</g>
<defs>
<clipPath id="clip0_2002_25">
<rect width="44" height="20" rx="10" fill="white"/>
</clipPath>
</defs>
</svg>
