<svg width="50" height="50" viewBox="0 0 50 50" fill="none" xmlns="http://www.w3.org/2000/svg">
<path d="M27 2C27 3.10457 26.1046 4 25 4C23.8954 4 23 3.10457 23 2C23 0.895431 23.8954 0 25 0C26.1046 0 27 0.895431 27 2Z" fill="#EE160B"/>
<path d="M4 25C4 26.1046 3.10457 27 2 27C0.895431 27 0 26.1046 0 25C0 23.8954 0.895431 23 2 23C3.10457 23 4 23.8954 4 25Z" fill="#EE160B"/>
<path d="M50 25C50 26.1046 49.1046 27 48 27C46.8954 27 46 26.1046 46 25C46 23.8954 46.8954 23 48 23C49.1046 23 50 23.8954 50 25Z" fill="#EE160B"/>
<path d="M27 48C27 49.1046 26.1046 50 25 50C23.8954 50 23 49.1046 23 48C23 46.8954 23.8954 46 25 46C26.1046 46 27 46.8954 27 48Z" fill="#EE160B"/>
<path d="M11 41C11 42.1046 10.1046 43 9 43C7.89543 43 7 42.1046 7 41C7 39.8954 7.89543 39 9 39C10.1046 39 11 39.8954 11 41Z" fill="#EE160B"/>
<path d="M43 41C43 42.1046 42.1046 43 41 43C39.8954 43 39 42.1046 39 41C39 39.8954 39.8954 39 41 39C42.1046 39 43 39.8954 43 41Z" fill="#EE160B"/>
<path d="M11 9C11 10.1046 10.1046 11 9 11C7.89543 11 7 10.1046 7 9C7 7.89543 7.89543 7 9 7C10.1046 7 11 7.89543 11 9Z" fill="#EE160B"/>
<path d="M43 9C43 10.1046 42.1046 11 41 11C39.8954 11 39 10.1046 39 9C39 7.89543 39.8954 7 41 7C42.1046 7 43 7.89543 43 9Z" fill="#EE160B"/>
</svg>
