<svg width="1440" height="1490" viewBox="0 0 1440 1490" fill="none" xmlns="http://www.w3.org/2000/svg">
<path fill-rule="evenodd" clip-rule="evenodd" d="M79.751 82.5196C249.985 -93.6251 641.581 21.766 981.102 337.848C1120.44 317.377 1240.6 327.911 1315.28 374.746C1386.78 419.583 1405.22 490.558 1378.03 573.197C1486.68 606.33 1448.16 666.773 1296.19 728.827C1455.91 1004.63 1490.31 1272.9 1360.25 1407.48C1191.62 1581.97 805.767 1470.38 468.493 1161.02C321.278 1185.25 193.698 1175.92 115.711 1127.02C30.5675 1073.62 20.6614 983.157 73.4756 880.07C-44.2668 849.041 -15.8882 790.248 125.629 728.827C-18.348 464.576 -45.2185 211.829 79.751 82.5196ZM1268.16 746.273C1207.29 812.936 1124.87 880.761 1023.74 944.184C850.333 1052.93 656.3 1127.18 486.333 1157.93C762.379 1393.67 1087.51 1455.95 1247.31 1290.6C1363.08 1170.82 1363.39 961.263 1268.16 746.273ZM109.737 887.902C83.7128 969.916 104.04 1041.88 177.763 1088.11C240.903 1127.71 334.142 1142.74 441.768 1135.99C424.678 1119.65 407.731 1102.81 390.967 1085.46C332.882 1025.36 280.58 963.012 234.531 899.948C187.185 898.095 145.035 894.125 109.737 887.902ZM1243.09 748.936C1188.6 768.16 1123.58 787.275 1049.03 805.514C783.875 870.394 473.527 905.793 258.241 900.693C298.216 961.126 345.515 1020.34 399.685 1076.39C419.372 1096.76 439.464 1116.19 459.868 1134.66C632.476 1120.16 838.861 1051.6 1016.94 939.922C1113.44 879.408 1189.75 813.68 1243.09 748.936ZM1166.78 567.184C963.95 554.227 655.47 584.481 400.615 646.841C341.316 661.35 289.12 676.571 244.6 692.011C220.236 715.405 198.757 738.925 180.293 762.276C198.798 801.818 220.507 841.462 245.299 880.683C446.889 898.542 772.554 868.446 1039.42 803.148C1126.83 781.759 1198.81 758.826 1253.52 735.923C1255.63 733.205 1257.7 730.489 1259.74 727.777C1234.58 673.996 1203.49 620.026 1166.78 567.184ZM160.376 789.07C144.043 812.542 130.853 835.726 120.942 858.321C128.526 860.836 136.874 863.216 145.999 865.449C167.199 870.636 191.629 874.797 218.756 877.969C197.899 848.402 178.424 818.717 160.376 789.07ZM131.804 740.034C57.9493 780.503 41.4102 818.974 92.6241 846.488C108.186 821.657 127.147 796.272 149.345 770.652C143.326 760.435 137.478 750.227 131.804 740.034ZM215.512 702.539C196.451 709.749 179.076 716.982 163.444 724.19C166.35 731.161 169.355 738.141 172.462 745.125C185.856 730.951 200.216 716.738 215.512 702.539ZM1361.86 612.959C1345.55 646.838 1322.34 682.174 1292.67 718.084C1370.62 679.145 1396.73 641.487 1361.86 612.959ZM963.57 340.57C685.432 97.7927 354.38 31.9902 192.658 199.328C82.0689 313.758 76.8421 510.118 159.619 714.876C180.832 706.617 204.028 698.347 229.129 690.123C279.424 645.079 339.091 600.33 407.259 557.581C587.127 444.783 789.192 369.097 963.57 340.57ZM1189.75 568.876C1222.56 612.36 1252.4 656.268 1279.12 700.098C1302.86 663.617 1318.87 627.97 1326.64 594.309C1317.15 590.805 1306.3 587.54 1294.04 584.539C1264.91 577.413 1229.69 572.225 1189.75 568.876ZM991.43 365.649C814.878 376.26 599.18 445.765 414.068 561.852C352.861 600.235 299.776 640.716 255.521 681.713C296.287 669.071 341.533 656.59 390.967 644.494C644.858 582.37 940.179 547.276 1153.81 548.883C1120.25 502.47 1082.34 457.054 1040.29 413.543C1024.25 396.951 1007.95 380.983 991.43 365.649ZM1253.24 413.662C1194.08 376.558 1108.48 361.019 1009.39 364.767C1022.7 377.717 1035.92 390.977 1049.03 404.543C1094.53 451.617 1136.48 500.067 1174.65 549.162C1235.24 550.336 1288.56 554.649 1331.57 562.337C1336.03 501.997 1311.06 449.917 1253.24 413.662Z" fill="white"/>
</svg>
