<svg width="445" height="445" viewBox="0 0 445 445" fill="none" xmlns="http://www.w3.org/2000/svg">
<circle opacity="0.3" cx="222.01" cy="222.628" r="219.8" stroke="#EE160B" stroke-dasharray="4 4"/>
<path d="M221.222 439.854C222.357 439.855 223.278 440.777 223.278 441.916C223.278 443.055 222.357 443.977 221.222 443.978C220.086 443.978 219.164 443.055 219.164 441.916C219.164 440.776 220.086 439.854 221.222 439.854Z" fill="#EE160B"/>
<path d="M220.461 439.47C220.301 439.52 220.148 439.585 220.003 439.664C220.075 439.625 220.149 439.588 220.226 439.556L220.461 439.47Z" fill="#EE160B"/>
<path d="M220.96 439.368L220.706 439.406C220.872 439.372 221.045 439.354 221.222 439.354C221.133 439.354 221.046 439.359 220.96 439.368Z" fill="#EE160B"/>
<path d="M110.43 412.097C110.998 411.111 112.256 410.773 113.239 411.342C114.223 411.911 114.561 413.172 113.993 414.158C113.425 415.144 112.166 415.482 111.183 414.913C110.199 414.344 109.861 413.083 110.43 412.097Z" fill="#EE160B"/>
<path d="M330.481 411.338C331.465 410.769 332.724 411.106 333.292 412.092C333.861 413.078 333.523 414.34 332.539 414.909C331.555 415.478 330.297 415.14 329.729 414.154C329.16 413.168 329.498 411.907 330.481 411.338Z" fill="#EE160B"/>
<path d="M114.284 414.629C114.266 414.655 114.244 414.677 114.225 414.702C114.247 414.673 114.272 414.645 114.293 414.615L114.284 414.629Z" fill="#EE160B"/>
<path d="M333.053 411.08C333.318 411.281 333.548 411.536 333.725 411.843C333.983 412.291 334.09 412.785 334.062 413.267C334.071 413.114 334.067 412.96 334.048 412.807C334.038 412.724 334.023 412.642 334.005 412.56C333.949 412.314 333.857 412.072 333.725 411.843C333.68 411.766 333.633 411.692 333.582 411.622C333.532 411.552 333.478 411.485 333.422 411.422C333.309 411.294 333.185 411.18 333.053 411.08Z" fill="#EE160B"/>
<path d="M109.789 412.305C109.778 412.337 109.77 412.369 109.761 412.401C109.769 412.374 109.774 412.346 109.783 412.319L109.789 412.305Z" fill="#EE160B"/>
<path d="M112.279 410.566C112.197 410.564 112.115 410.566 112.033 410.572L111.789 410.601C111.95 410.573 112.115 410.562 112.279 410.566Z" fill="#EE160B"/>
<path d="M30.9082 330.935C31.8917 330.366 33.1493 330.703 33.7178 331.688C34.2864 332.675 33.9489 333.937 32.9648 334.506C31.9813 335.075 30.7227 334.737 30.1543 333.751C29.5859 332.764 29.9243 331.504 30.9082 330.935Z" fill="#EE160B"/>
<path d="M411.278 331.688C411.847 330.703 413.104 330.366 414.088 330.935C415.072 331.504 415.409 332.764 414.841 333.751C414.272 334.737 413.015 335.075 412.031 334.506C411.047 333.937 410.71 332.675 411.278 331.688Z" fill="#EE160B"/>
<path d="M34.4932 332.651C34.4974 332.816 34.4861 332.981 34.459 333.143C34.4725 333.062 34.4815 332.98 34.4873 332.898L34.4932 332.651Z" fill="#EE160B"/>
<path d="M410.638 331.897C410.626 331.931 410.618 331.965 410.608 331.998C410.617 331.97 410.622 331.94 410.632 331.912L410.638 331.897Z" fill="#EE160B"/>
<path d="M33.0576 330.418C33.3529 330.562 33.6231 330.763 33.8486 331.018L34.0088 331.219C33.756 330.868 33.4267 330.598 33.0576 330.418Z" fill="#EE160B"/>
<path d="M413.375 330.177C413.705 330.218 414.032 330.324 414.338 330.501C414.261 330.457 414.183 330.417 414.104 330.382C413.868 330.275 413.622 330.207 413.375 330.177Z" fill="#EE160B"/>
<path d="M2.55762 220.817C3.69291 220.817 4.61499 221.74 4.61523 222.879C4.61523 224.018 3.69306 224.941 2.55762 224.941C1.42211 224.941 0.5 224.018 0.5 222.879C0.500247 221.74 1.42226 220.817 2.55762 220.817Z" fill="#EE160B"/>
<path d="M442.442 220.817C443.578 220.817 444.5 221.74 444.5 222.879C444.5 224.018 443.578 224.941 442.442 224.941C441.307 224.941 440.385 224.018 440.385 222.879C440.385 221.74 441.307 220.817 442.442 220.817Z" fill="#EE160B"/>
<path d="M3.07324 220.369C3.12148 220.379 3.16861 220.393 3.21582 220.405C3.1636 220.391 3.11109 220.378 3.05762 220.367L3.07324 220.369Z" fill="#EE160B"/>
<path d="M30.1543 112.012C30.7227 111.026 31.9813 110.688 32.9648 111.257C33.9489 111.826 34.2864 113.088 33.7178 114.074C33.1494 115.06 31.8917 115.398 30.9082 114.829C29.9242 114.26 29.5858 112.998 30.1543 112.012Z" fill="#EE160B"/>
<path d="M412.031 111.257C413.015 110.688 414.272 111.026 414.841 112.012C415.41 112.998 415.072 114.26 414.088 114.829C413.104 115.398 411.847 115.06 411.278 114.074C410.71 113.088 411.047 111.826 412.031 111.257Z" fill="#EE160B"/>
<path d="M29.5146 112.22C29.5034 112.253 29.4952 112.287 29.4854 112.32C29.4936 112.292 29.4995 112.263 29.5088 112.235L29.5146 112.22Z" fill="#EE160B"/>
<path d="M113.485 34.8496C113.026 35.115 112.52 35.2215 112.028 35.1865C112.356 35.2098 112.69 35.1701 113.013 35.0625C113.174 35.0087 113.332 34.9381 113.485 34.8496Z" fill="#EE160B"/>
<path d="M329.732 31.6045C330.301 30.6183 331.559 30.2808 332.543 30.8496C333.527 31.4188 333.865 32.6804 333.296 33.667C332.727 34.6528 331.47 34.9895 330.486 34.4209C329.502 33.8518 329.164 32.5911 329.732 31.6045Z" fill="#EE160B"/>
<path d="M111.179 30.8457C112.162 30.277 113.42 30.6139 113.988 31.5996C114.557 32.5863 114.219 33.8479 113.235 34.417C112.252 34.9858 110.994 34.6483 110.426 33.6621C109.857 32.6755 110.195 31.4148 111.179 30.8457Z" fill="#EE160B"/>
<path d="M333.427 34.3369C333.411 34.3551 333.392 34.3711 333.376 34.3887C333.396 34.3674 333.417 34.3473 333.437 34.3252L333.427 34.3369Z" fill="#EE160B"/>
<path d="M112.139 30.0703C111.891 30.0768 111.643 30.1195 111.401 30.2002C111.24 30.254 111.082 30.3246 110.929 30.4131C111.005 30.3689 111.082 30.3284 111.161 30.293C111.477 30.1509 111.809 30.0789 112.139 30.0703Z" fill="#EE160B"/>
<path d="M221.222 0.5C222.357 0.500223 223.278 1.42228 223.278 2.56152C223.278 3.70091 222.357 4.6238 221.222 4.62402C220.086 4.62402 219.164 3.70105 219.164 2.56152C219.164 1.42214 220.086 0.5 221.222 0.5Z" fill="#EE160B"/>
<path d="M223.778 2.56152C223.778 2.82675 223.738 3.08264 223.663 3.32324C223.713 3.16274 223.747 2.99553 223.765 2.82324C223.773 2.73726 223.778 2.64981 223.778 2.56152Z" fill="#EE160B"/>
<path d="M218.865 1.56445C218.736 1.87092 218.664 2.20783 218.664 2.56152C218.664 2.29632 218.704 2.04039 218.778 1.7998L218.865 1.56445Z" fill="#EE160B"/>
<path d="M220.226 0.201172C220.149 0.233601 220.076 0.270092 220.003 0.30957C219.886 0.373024 219.777 0.44714 219.672 0.527344C219.842 0.397419 220.026 0.28567 220.226 0.201172Z" fill="#EE160B"/>
</svg>
